<?xml version="1.0" standalone="no"?>
<!DOCTYPE svg PUBLIC "-//W3C//DTD SVG 20010904//EN"
 "http://www.w3.org/TR/2001/REC-SVG-20010904/DTD/svg10.dtd">
<svg version="1.0" xmlns="http://www.w3.org/2000/svg"
 width="512.000000pt" height="512.000000pt" viewBox="0 0 512.000000 512.000000"
 preserveAspectRatio="xMidYMid meet">

<g transform="translate(0.000000,512.000000) scale(0.100000,-0.100000)"
fill="#e84b29" stroke="none">
<path d="M570 5106 c-90 -24 -182 -104 -223 -194 l-22 -47 -3 -2160 c-3 -2404
-8 -2231 65 -2378 26 -51 58 -94 112 -147 87 -87 164 -131 277 -160 75 -20
117 -20 1784 -20 1654 0 1709 1 1782 19 117 30 193 73 279 160 53 53 86 98
112 148 67 137 68 146 65 828 l-3 610 -33 67 c-38 77 -92 130 -171 167 -56 26
-58 26 -294 26 l-239 0 -25 -29 c-20 -24 -24 -36 -19 -65 10 -68 23 -71 255
-71 262 -1 300 -12 342 -105 17 -37 19 -79 19 -620 0 -632 -1 -644 -57 -747
-14 -26 -50 -71 -80 -99 -209 -198 -545 -135 -674 126 l-34 70 -5 735 c-4 555
-8 740 -17 756 -14 25 -66 46 -91 37 -9 -3 -27 -15 -39 -26 l-23 -20 0 -731
c0 -580 3 -741 14 -781 22 -82 58 -156 108 -222 l47 -63 -1452 0 c-1566 0
-1505 -2 -1609 51 -58 29 -140 110 -171 167 -61 111 -57 -33 -57 2293 0 1479
3 2136 11 2156 14 38 57 83 96 99 27 12 269 14 1451 14 l1418 0 44 -22 c48
-24 90 -77 90 -112 0 -12 5 -38 11 -59 21 -77 124 -85 155 -11 11 25 11 45 3
90 -25 134 -110 230 -239 268 -48 14 -207 16 -1484 15 -1097 0 -1442 -3 -1476
-13z"/>
<path d="M3225 4475 c-464 -86 -811 -425 -911 -890 -35 -164 -19 -399 38 -569
88 -265 288 -500 538 -635 146 -78 357 -131 525 -131 473 0 909 315 1059 765
45 133 59 242 53 400 -6 174 -36 297 -106 440 -148 303 -410 516 -740 602
-123 32 -335 40 -456 18z m348 -170 c306 -53 573 -258 703 -539 62 -134 79
-221 79 -396 0 -168 -11 -230 -66 -362 -136 -331 -452 -556 -816 -584 -178
-13 -386 37 -545 132 -96 58 -222 173 -284 260 -54 76 -127 228 -148 309 -83
323 3 659 228 893 227 238 535 342 849 287z"/>
<path d="M3384 3940 c-31 -12 -54 -49 -54 -85 0 -24 -6 -33 -31 -44 -43 -19
-98 -76 -120 -125 -22 -48 -25 -158 -7 -220 8 -25 32 -61 63 -92 43 -44 62
-55 135 -79 103 -33 130 -57 130 -120 0 -53 -30 -92 -76 -101 -39 -7 -94 35
-94 73 0 81 -90 124 -145 68 -59 -58 -9 -206 91 -271 19 -13 24 -25 24 -58 0
-67 59 -105 125 -80 19 8 45 55 45 83 0 14 11 23 36 31 47 16 109 72 137 124
31 59 31 203 0 262 -36 67 -90 108 -184 139 -104 33 -129 57 -129 123 1 64 35
102 90 102 33 0 80 -53 80 -90 0 -67 88 -106 138 -60 40 37 40 105 2 180 -20
40 -87 104 -118 114 -14 5 -21 18 -25 48 -9 64 -61 100 -113 78z"/>
<path d="M1095 3845 c-25 -24 -32 -65 -19 -100 17 -42 44 -45 439 -45 384 0
403 2 432 39 21 27 15 79 -12 106 l-24 25 -396 0 -396 0 -24 -25z"/>
<path d="M1095 2885 c-25 -24 -32 -65 -19 -100 17 -42 44 -45 439 -45 384 0
403 2 432 39 21 27 15 79 -12 106 l-24 25 -396 0 -396 0 -24 -25z"/>
<path d="M1095 1925 c-25 -24 -32 -65 -19 -100 18 -46 6 -45 979 -45 l917 0
29 29 c31 31 36 59 17 94 -25 48 11 46 -971 47 l-928 0 -24 -25z"/>
<path d="M1130 1053 c-60 -22 -81 -100 -37 -141 l23 -22 931 0 c1041 0 967 -5
979 71 5 29 1 41 -19 65 l-25 29 -919 2 c-505 1 -925 -1 -933 -4z"/>
</g>
</svg>
