<?xml version="1.0" standalone="no"?>
<!DOCTYPE svg PUBLIC "-//W3C//DTD SVG 20010904//EN"
 "http://www.w3.org/TR/2001/REC-SVG-20010904/DTD/svg10.dtd">
<svg version="1.0" xmlns="http://www.w3.org/2000/svg"
 width="512.000000pt" height="512.000000pt" viewBox="0 0 512.000000 512.000000"
 preserveAspectRatio="xMidYMid meet">

<g transform="translate(0.000000,512.000000) scale(0.100000,-0.100000)"
fill="#e84b29" stroke="none">
<path d="M1623 4850 c-101 -11 -222 -43 -332 -88 -258 -108 -494 -347 -598
-607 -60 -150 -75 -224 -80 -400 -5 -154 7 -252 42 -370 5 -17 -1 -24 -34 -38
-70 -31 -186 -112 -261 -183 -225 -211 -359 -519 -360 -826 -1 -425 245 -822
627 -1012 173 -86 294 -113 546 -123 170 -6 178 -7 181 -27 53 -283 121 -429
279 -593 493 -514 1332 -385 1650 253 45 90 85 216 93 297 l7 65 371 5 c285 4
388 9 446 21 659 140 1057 786 875 1423 -141 492 -597 830 -1108 823 -80 -2
-101 1 -99 11 32 131 27 306 -12 424 -104 310 -381 509 -706 507 -131 0 -232
-26 -344 -85 l-82 -44 -43 68 c-89 139 -240 277 -396 364 -184 103 -445 156
-662 135z m212 -160 c314 -36 588 -211 742 -476 77 -132 79 -134 119 -134 27
0 50 11 92 44 114 88 229 129 362 129 166 0 289 -52 411 -173 125 -124 175
-255 167 -435 -4 -86 -10 -113 -42 -193 -33 -82 -36 -97 -26 -122 20 -49 44
-54 160 -34 248 41 496 -11 703 -149 362 -242 520 -688 390 -1102 -49 -154
-124 -277 -242 -396 -157 -158 -356 -253 -586 -279 -136 -15 -695 -13 -699 3
-2 6 -9 47 -16 90 -30 200 -129 388 -284 542 -133 132 -278 216 -464 268 -66
18 -103 21 -257 21 -167 0 -187 -2 -268 -27 -187 -58 -318 -135 -447 -266
-152 -153 -249 -336 -281 -531 -6 -36 -13 -76 -15 -89 l-5 -24 -177 6 c-143 5
-196 11 -276 31 -436 112 -736 497 -736 943 1 307 141 591 380 772 140 105
286 166 459 192 108 15 271 6 376 -21 117 -30 285 -116 379 -194 59 -50 86
-66 109 -66 43 0 77 35 77 78 0 29 -8 43 -47 79 -259 238 -647 342 -997 268
-65 -13 -80 -14 -87 -3 -22 35 -34 135 -34 288 0 142 3 176 23 244 123 426
468 696 927 725 11 0 61 -4 110 -9z m741 -3032 c118 -117 175 -181 179 -200
12 -53 -47 -108 -99 -92 -11 4 -63 47 -113 97 l-93 91 0 -381 c0 -370 -1 -381
-21 -407 -29 -37 -89 -37 -118 0 -20 26 -21 37 -21 408 l0 381 -87 -87 c-92
-90 -118 -108 -153 -108 -32 0 -70 44 -70 82 0 29 20 52 178 210 161 161 181
178 212 178 30 0 51 -17 206 -172z"/>
</g>
</svg>
